<?xml version="1.0" encoding="utf-8"?>
<svg version="1.1" xmlns:xlink="http://www.w3.org/1999/xlink" width="682px" height="295px" xmlns="http://www.w3.org/2000/svg">
  <g transform="matrix(1 0 0 1 -421 -167 )">
    <path d="M 421 167  L 1103 167  L 1103 462  L 421 462  L 421 167  " fill-rule="nonzero" fill="#cccccc" stroke="none" />
    <path d="M 442 188  L 1082 188  L 1082 441  L 442 441  L 442 188  " fill-rule="nonzero" fill="#ffffff" stroke="none" />
    <path d="M 797.765 255.5  C 785.375 255.5  775.64 245.765  775.64 233.375  C 775.64 220.985  785.375 211.25  797.765 211.25  C 810.155 211.25  819.89 220.985  819.89 233.375  C 819.89 245.765  810.155 255.5  797.765 255.5  " fill-rule="nonzero" fill="#cccccc" stroke="none" />
    <path d="M 450 434  L 450 303.1  L 606.25 243.6  L 825 372.2316715542522  L 950 279.29999999999995  L 1075 372.2316715542522  L 1075 434  L 450 434  " fill-rule="nonzero" fill="#169bd5" stroke="none" />
  </g>
</svg>